<mxfile host="app.diagrams.net" modified="2024-01-01T00:00:00.000Z">
  <diagram name="用户操作流程" id="flow1">
    <mxGraphModel dx="1422" dy="762" grid="1" gridSize="10" guides="1" tooltips="1" connect="1" arrows="1" fold="1" page="1" pageScale="1" pageWidth="827" pageHeight="1169" math="0" shadow="0">
      <root>
        <mxCell id="0"/>
        <mxCell id="1" parent="0"/>
        
        <!-- 开始 -->
        <mxCell id="2" value="进入页面" style="strokeWidth=2;html=1;shape=mxgraph.flowchart.terminator;whiteSpace=wrap;fillColor=#C8E6C9;strokeColor=#388E3C;fontSize=14;" vertex="1" parent="1">
          <mxGeometry x="340" y="40" width="140" height="60" as="geometry"/>
        </mxCell>
        
        <!-- 加载数据 -->
        <mxCell id="3" value="加载试卷数据&lt;br&gt;&lt;font color=&quot;#666666&quot;&gt;getMakePaper()&lt;/font&gt;" style="rounded=1;whiteSpace=wrap;html=1;fillColor=#BBDEFB;strokeColor=#1976D2;fontSize=13;" vertex="1" parent="1">
          <mxGeometry x="340" y="140" width="140" height="60" as="geometry"/>
        </mxCell>
        
        <!-- 模式判断 -->
        <mxCell id="4" value="有图片文件?" style="strokeWidth=2;html=1;shape=mxgraph.flowchart.decision;whiteSpace=wrap;fillColor=#FFF9C4;strokeColor=#F9A825;fontSize=13;" vertex="1" parent="1">
          <mxGeometry x="340" y="240" width="140" height="100" as="geometry"/>
        </mxCell>
        
        <!-- HTML模式 -->
        <mxCell id="5" value="HTML模式" style="rounded=1;whiteSpace=wrap;html=1;fillColor=#E1F5FE;strokeColor=#0288D1;fontSize=13;" vertex="1" parent="1">
          <mxGeometry x="160" y="260" width="120" height="60" as="geometry"/>
        </mxCell>
        
        <!-- 图片模式 -->
        <mxCell id="6" value="图片模式" style="rounded=1;whiteSpace=wrap;html=1;fillColor=#FFE0B2;strokeColor=#F57C00;fontSize=13;fontStyle=1" vertex="1" parent="1">
          <mxGeometry x="540" y="260" width="140" height="60" as="geometry"/>
        </mxCell>
        
        <!-- 点击题目 -->
        <mxCell id="7" value="点击题目节点&lt;br&gt;&lt;font color=&quot;#666666&quot;&gt;(题干/答案/解析)&lt;/font&gt;" style="rounded=1;whiteSpace=wrap;html=1;fillColor=#E1BEE7;strokeColor=#7B1FA2;fontSize=13;" vertex="1" parent="1">
          <mxGeometry x="340" y="380" width="140" height="60" as="geometry"/>
        </mxCell>
        
        <!-- 判断内容 -->
        <mxCell id="8" value="已有划分?" style="strokeWidth=2;html=1;shape=mxgraph.flowchart.decision;whiteSpace=wrap;fillColor=#FFF9C4;strokeColor=#F9A825;fontSize=13;" vertex="1" parent="1">
          <mxGeometry x="340" y="480" width="140" height="100" as="geometry"/>
        </mxCell>
        
        <!-- 高亮 -->
        <mxCell id="9" value="高亮对应分区" style="rounded=1;whiteSpace=wrap;html=1;fillColor=#C8E6C9;strokeColor=#388E3C;fontSize=13;" vertex="1" parent="1">
          <mxGeometry x="540" y="500" width="120" height="60" as="geometry"/>
        </mxCell>
        
        <!-- 绘制模式 -->
        <mxCell id="10" value="进入绘制模式" style="rounded=1;whiteSpace=wrap;html=1;fillColor=#FFE0B2;strokeColor=#F57C00;fontSize=13;" vertex="1" parent="1">
          <mxGeometry x="340" y="620" width="140" height="60" as="geometry"/>
        </mxCell>
        
        <!-- 绘制 -->
        <mxCell id="11" value="拖拽绘制矩形" style="rounded=1;whiteSpace=wrap;html=1;fillColor=#FFCCBC;strokeColor=#FF5722;fontSize=13;" vertex="1" parent="1">
          <mxGeometry x="340" y="720" width="140" height="60" as="geometry"/>
        </mxCell>
        
        <!-- 坐标转换 -->
        <mxCell id="12" value="计算原始坐标" style="rounded=1;whiteSpace=wrap;html=1;fillColor=#B39DDB;strokeColor=#512DA8;fontSize=13;" vertex="1" parent="1">
          <mxGeometry x="340" y="820" width="140" height="60" as="geometry"/>
        </mxCell>
        
        <!-- 更新数据 -->
        <mxCell id="13" value="更新数据结构&lt;br&gt;&lt;font color=&quot;#666666&quot;&gt;content + delta&lt;/font&gt;" style="rounded=1;whiteSpace=wrap;html=1;fillColor=#FFCDD2;strokeColor=#E53935;fontSize=13;" vertex="1" parent="1">
          <mxGeometry x="340" y="920" width="140" height="60" as="geometry"/>
        </mxCell>
        
        <!-- 保存 -->
        <mxCell id="14" value="自动保存&lt;br&gt;&lt;font color=&quot;#666666&quot;&gt;防抖1秒&lt;/font&gt;" style="rounded=1;whiteSpace=wrap;html=1;fillColor=#F8BBD0;strokeColor=#C2185B;fontSize=13;" vertex="1" parent="1">
          <mxGeometry x="340" y="1020" width="140" height="60" as="geometry"/>
        </mxCell>
        
        <!-- 完成 -->
        <mxCell id="15" value="完成" style="strokeWidth=2;html=1;shape=mxgraph.flowchart.terminator;whiteSpace=wrap;fillColor=#C8E6C9;strokeColor=#388E3C;fontSize=14;" vertex="1" parent="1">
          <mxGeometry x="340" y="1120" width="140" height="60" as="geometry"/>
        </mxCell>
        
        <!-- 连线 -->
        <mxCell id="16" value="" style="endArrow=classic;html=1;exitX=0.5;exitY=1;exitDx=0;exitDy=0;exitPerimeter=0;entryX=0.5;entryY=0;entryDx=0;entryDy=0;strokeWidth=2;strokeColor=#1976D2;" edge="1" parent="1" source="2" target="3">
          <mxGeometry relative="1" as="geometry"/>
        </mxCell>
        
        <mxCell id="17" value="" style="endArrow=classic;html=1;exitX=0.5;exitY=1;exitDx=0;exitDy=0;entryX=0.5;entryY=0;entryDx=0;entryDy=0;entryPerimeter=0;strokeWidth=2;strokeColor=#1976D2;" edge="1" parent="1" source="3" target="4">
          <mxGeometry relative="1" as="geometry"/>
        </mxCell>
        
        <mxCell id="18" value="无" style="endArrow=classic;html=1;exitX=0;exitY=0.5;exitDx=0;exitDy=0;exitPerimeter=0;entryX=1;entryY=0.5;entryDx=0;entryDy=0;strokeWidth=2;strokeColor=#0288D1;" edge="1" parent="1" source="4" target="5">
          <mxGeometry relative="1" as="geometry">
            <mxPoint x="10" y="-10" as="offset"/>
          </mxGeometry>
        </mxCell>
        
        <mxCell id="19" value="有" style="endArrow=classic;html=1;exitX=1;exitY=0.5;exitDx=0;exitDy=0;exitPerimeter=0;entryX=0;entryY=0.5;entryDx=0;entryDy=0;strokeWidth=2;strokeColor=#F57C00;" edge="1" parent="1" source="4" target="6">
          <mxGeometry relative="1" as="geometry">
            <mxPoint x="10" y="-10" as="offset"/>
          </mxGeometry>
        </mxCell>
        
        <mxCell id="20" value="" style="endArrow=classic;html=1;exitX=0.5;exitY=1;exitDx=0;exitDy=0;exitPerimeter=0;entryX=0.5;entryY=0;entryDx=0;entryDy=0;strokeWidth=2;strokeColor=#1976D2;" edge="1" parent="1" source="4" target="7">
          <mxGeometry relative="1" as="geometry"/>
        </mxCell>
        
        <mxCell id="21" value="" style="endArrow=classic;html=1;exitX=0.5;exitY=1;exitDx=0;exitDy=0;entryX=0.5;entryY=0;entryDx=0;entryDy=0;entryPerimeter=0;strokeWidth=2;strokeColor=#7B1FA2;" edge="1" parent="1" source="7" target="8">
          <mxGeometry relative="1" as="geometry"/>
        </mxCell>
        
        <mxCell id="22" value="是" style="endArrow=classic;html=1;exitX=1;exitY=0.5;exitDx=0;exitDy=0;exitPerimeter=0;entryX=0;entryY=0.5;entryDx=0;entryDy=0;strokeWidth=2;strokeColor=#388E3C;" edge="1" parent="1" source="8" target="9">
          <mxGeometry relative="1" as="geometry">
            <mxPoint x="10" y="-10" as="offset"/>
          </mxGeometry>
        </mxCell>
        
        <mxCell id="23" value="否" style="endArrow=classic;html=1;exitX=0.5;exitY=1;exitDx=0;exitDy=0;exitPerimeter=0;entryX=0.5;entryY=0;entryDx=0;entryDy=0;strokeWidth=2;strokeColor=#F57C00;" edge="1" parent="1" source="8" target="10">
          <mxGeometry relative="1" as="geometry">
            <mxPoint x="-20" y="0" as="offset"/>
          </mxGeometry>
        </mxCell>
        
        <mxCell id="24" value="" style="endArrow=classic;html=1;exitX=0.5;exitY=1;exitDx=0;exitDy=0;entryX=0.5;entryY=0;entryDx=0;entryDy=0;strokeWidth=2;strokeColor=#FF5722;" edge="1" parent="1" source="10" target="11">
          <mxGeometry relative="1" as="geometry"/>
        </mxCell>
        
        <mxCell id="25" value="" style="endArrow=classic;html=1;exitX=0.5;exitY=1;exitDx=0;exitDy=0;entryX=0.5;entryY=0;entryDx=0;entryDy=0;strokeWidth=2;strokeColor=#512DA8;" edge="1" parent="1" source="11" target="12">
          <mxGeometry relative="1" as="geometry"/>
        </mxCell>
        
        <mxCell id="26" value="" style="endArrow=classic;html=1;exitX=0.5;exitY=1;exitDx=0;exitDy=0;entryX=0.5;entryY=0;entryDx=0;entryDy=0;strokeWidth=2;strokeColor=#E53935;" edge="1" parent="1" source="12" target="13">
          <mxGeometry relative="1" as="geometry"/>
        </mxCell>
        
        <mxCell id="27" value="" style="endArrow=classic;html=1;exitX=0.5;exitY=1;exitDx=0;exitDy=0;entryX=0.5;entryY=0;entryDx=0;entryDy=0;strokeWidth=2;strokeColor=#C2185B;dashed=1;" edge="1" parent="1" source="13" target="14">
          <mxGeometry relative="1" as="geometry"/>
        </mxCell>
        
        <mxCell id="28" value="" style="endArrow=classic;html=1;exitX=0.5;exitY=1;exitDx=0;exitDy=0;entryX=0.5;entryY=0;entryDx=0;entryDy=0;entryPerimeter=0;strokeWidth=2;strokeColor=#388E3C;" edge="1" parent="1" source="14" target="15">
          <mxGeometry relative="1" as="geometry"/>
        </mxCell>
        
        <!-- 循环箭头 -->
        <mxCell id="29" value="继续划分" style="endArrow=classic;html=1;exitX=0;exitY=0.5;exitDx=0;exitDy=0;entryX=0;entryY=0.5;entryDx=0;entryDy=0;strokeWidth=2;strokeColor=#0288D1;curved=1;dashed=1;" edge="1" parent="1" source="14" target="11">
          <mxGeometry relative="1" as="geometry">
            <mxPoint x="-40" y="0" as="offset"/>
            <Array as="points">
              <mxPoint x="300" y="1050"/>
              <mxPoint x="300" y="750"/>
            </Array>
          </mxGeometry>
        </mxCell>
        
        <!-- 注释框 -->
        <mxCell id="30" value="💡 关键点&lt;br&gt;&lt;br&gt;• 坐标转换&lt;br&gt;• 防抖保存&lt;br&gt;• 虚拟节点处理" style="shape=note;whiteSpace=wrap;html=1;backgroundOutline=1;darkOpacity=0.05;fillColor=#FFF3E0;size=20;align=left;verticalAlign=top;fontSize=11;" vertex="1" parent="1">
          <mxGeometry x="560" y="720" width="150" height="120" as="geometry"/>
        </mxCell>
      </root>
    </mxGraphModel>
  </diagram>
</mxfile>
